<svg width="55" height="66" viewBox="0 0 55 66" fill="none" xmlns="http://www.w3.org/2000/svg">
<path d="M3.47923 2.39278C1.12563 4.99278 0 9.49278 0 16.0928C0.10233 25.4928 8.28875 34.2928 18.5218 35.9928L22.1033 36.5928L21.8987 41.9928C21.7963 44.9928 20.6707 51.1928 19.3404 55.6928C17.6008 61.7928 17.2938 64.1928 18.2148 65.0928C20.773 67.5928 23.3313 64.9928 26.8105 56.3928C30.0851 48.4928 30.5967 47.7928 34.5876 45.9928C39.6018 43.7928 44.8206 36.7928 45.8439 30.7928C46.2533 28.0928 47.5836 25.9928 50.4488 23.3928L54.4397 19.8928L51.6768 17.6928C45.6393 13.0928 38.3738 14.1928 33.9736 20.4928C31.1084 24.5928 30.0851 24.7928 26.0942 21.7928C19.1358 16.4928 15.4519 12.4928 12.6889 7.19278C8.59574 -0.80722 7.06079 -1.70722 3.47923 2.39278Z" fill="#E14796"/>
</svg>
