<svg width="80" height="72" viewBox="0 0 80 72" fill="none" xmlns="http://www.w3.org/2000/svg">
<path d="M79.6599 24.918C79.3823 24.4118 78.9741 24.0744 78.5252 23.9844L73.9209 23.0732L73.0801 16.7851C72.9086 15.4915 72.0025 14.6365 71.0637 14.8728L54.1978 19.1474L41.0789 16.5376C40.132 16.3576 39.2585 17.2575 39.1197 18.5624L38.6462 23.0957L31.3643 24.9405C30.9153 25.053 30.5153 25.413 30.2541 25.9304C29.9928 26.4479 29.8949 27.0891 29.9765 27.719L35.2012 66.8539C35.2828 67.4726 35.5441 68.0238 35.9196 68.3838C36.2135 68.665 36.5563 68.8 36.8992 68.8C37.0053 68.8 37.1115 68.7888 37.2094 68.755L60.4102 62.8718L74.1576 65.6053C74.2393 65.6166 74.3291 65.6278 74.4026 65.6278C75.2516 65.6278 75.9863 64.7729 76.1169 63.5805L76.623 58.7547L76.9088 58.676C77.8476 58.4398 78.468 57.1911 78.2966 55.8975L77.521 50.1156L79.9783 26.6729C80.0517 26.0542 79.9374 25.4242 79.6599 24.918ZM75.5699 35.4583L74.027 50.2168L73.5617 54.6826L73.0392 59.6659L72.9494 60.5433L71.0637 60.1721L60.3449 58.0461L38.9238 53.7827L41.7157 27.1566L42.2382 22.1733L42.2953 21.5884L43.5525 21.8358L54.2631 23.9619L70.9657 27.2803L74.5821 28.0002L76.321 28.349L75.5699 35.4583ZM69.9861 19.9798L70.3045 22.342L64.9083 21.2734L69.9861 19.9798ZM33.6828 29.1926L38.1156 28.0677L36.0992 47.3146L33.6828 29.1926ZM38.287 63.6368L37.5768 58.3273L49.6996 60.7458L38.287 63.6368ZM49.4547 38.3042C51.2752 38.6642 52.9569 36.9319 53.2181 34.4234C53.4794 31.9149 52.2222 29.5976 50.4017 29.2376C48.5812 28.8777 46.8995 30.61 46.6383 33.1185C46.3771 35.6157 47.6343 37.9443 49.4547 38.3042ZM68.9166 41.4989L65.7655 46.0097L61.7899 35.2108L54.2304 47.1684C54.2304 47.1684 44.2954 41.6564 41.5688 51.2067L67.2023 56.3025L70.9902 57.0562L70.7698 55.4026L68.9166 41.4989Z" fill="#BFE0EE"/>
<path d="M38.7634 61.692L19.6023 61.75C11.877 61.7733 4.41093 53.4498 4.41093 44.8809C4.41093 36.3024 9.78803 27.4973 19.5759 26.4427L21.9562 26.1863C24.241 17.2248 33.0063 10.1048 41.956 10.1048C50.2934 10.1048 59.2025 17.3504 61.9184 25.5364L67.2 25.3463C63.8202 13.4359 53.9393 4.8 42.1099 4.8C31.9359 4.8 23.1587 11.2339 18.7701 20.5879C8.25127 21.7368 0 31.6748 0 43.7575C0 56.6156 9.4756 67.1377 21.055 67.1377H40.7908" fill="#BFE0EE"/>
</svg>
