<svg width="80" height="72" viewBox="0 0 80 72" fill="none" xmlns="http://www.w3.org/2000/svg">
<g clip-path="url(#clip0_520_61)">
<path d="M24.5898 0.943321C24.5245 1.15718 24.5033 3.77169 24.5245 6.75969L24.5898 12.2297H25.8911H27.1923V6.49362V0.75657L25.9343 0.676247C25.0454 0.623033 24.6551 0.703357 24.5898 0.943321Z" fill="#BFE0EE"/>
<path d="M7.45277 10.2286L6.60706 11.2959L9.83889 15.298C11.6177 17.5129 13.2013 19.3001 13.3099 19.3001C13.5915 19.3001 15.154 17.3794 15.154 17.032C15.154 16.6052 8.99317 9.16133 8.64623 9.16133C8.45113 9.16133 7.90828 9.64126 7.45277 10.2286Z" fill="#BFE0EE"/>
<path d="M39.927 12.9767C38.2348 15.058 36.847 16.8984 36.847 17.0591C36.847 17.4055 38.4087 19.3001 38.7123 19.3001C39.0593 19.3001 45.0903 11.7226 45.0903 11.2688C45.0903 10.7618 43.767 9.16133 43.3327 9.16133C43.1589 9.16133 41.6405 10.8682 39.927 12.9767Z" fill="#BFE0EE"/>
<path d="M24.2217 15.3512C18.4299 16.0179 13.2234 21.9417 12.0307 29.225C11.5973 31.8134 11.5973 33.467 12.0307 36.0554C12.5948 39.5776 13.8095 42.2985 15.9785 44.9934C17.1279 46.4341 17.2364 46.5145 17.4968 46.0606C17.6487 45.7936 18.1042 45.0205 18.4944 44.3528L19.2315 43.0987L18.1907 41.8447C14.9801 37.949 14.2209 31.3596 16.4119 26.3966C19.8177 18.6595 28.1907 17.0049 33.4405 23.0883L34.5466 24.3424L35.6315 23.0883C36.2388 22.3945 36.7597 21.7007 36.8029 21.5411C36.9327 20.9808 34.1564 18.2328 32.3997 17.1655C29.6446 15.4848 27.367 14.9777 24.2217 15.3512Z" fill="#BFE0EE"/>
<path d="M43.398 21.4337C40.8812 22.261 38.9294 23.6486 36.9555 26.1024C34.287 29.3585 32.7245 33.6809 32.7245 37.7623V39.3095H31.2715C26.629 39.3356 22.096 42.6449 19.8176 47.7143C15.9131 56.3851 18.7115 67.0309 25.9784 71.1133C28.7115 72.6605 28.647 72.6605 47.8665 72.6605C63.1383 72.6605 65.7196 72.6073 67.1726 72.2338C70.4053 71.4065 72.9 69.7257 75.3726 66.6574C80.2967 60.574 81.4036 51.2625 78.1497 43.5787C76.1971 38.9902 72.7914 35.5745 68.5179 33.9209C67.1294 33.3877 66.4355 33.3074 63.789 33.3074H60.709L60.362 32.0272C59.8632 30.1597 58.0845 27.0111 56.5653 25.3303C53.1155 21.4879 47.9531 19.9668 43.398 21.4337ZM49.0592 26.1034C51.9228 26.8504 54.6779 29.3053 56.0012 32.2933C56.3269 33.0674 56.9122 34.9078 57.2592 36.4289C57.6281 37.95 57.953 39.2041 57.9751 39.2573C58.0183 39.2844 58.9947 39.0705 60.1881 38.7503C65.4159 37.3898 69.2559 38.5635 72.4444 42.4853C76.2191 47.1279 77.0436 54.118 74.5269 59.9615C73.0738 63.3772 69.6893 66.552 66.7179 67.299C65.9367 67.5129 59.9498 67.5922 47.3465 67.539L29.1253 67.4586L27.4984 66.4717C25.4813 65.2447 23.8543 63.2166 22.9213 60.7617C21.9882 58.3069 21.8364 54.9182 22.509 52.4373C23.6804 48.1952 26.2184 45.394 29.6674 44.4863C30.8821 44.1931 31.6845 44.166 33.6372 44.3799C34.9816 44.5134 36.2616 44.647 36.4788 44.647C36.8257 44.647 36.8478 44.2996 36.8257 40.5646C36.8037 38.0826 36.891 36.0554 37.0641 35.3084C38.0837 30.6658 41.1425 27.1175 44.9604 26.1034C46.6951 25.6225 47.2804 25.6225 49.0592 26.1034Z" fill="#BFE0EE"/>
<path d="M0.22991 31.0121C0.0348084 31.1457 -0.0304976 31.7059 0.0127676 32.7993L0.0780736 34.3737L4.50337 34.454C7.58337 34.5072 9.0152 34.4269 9.21112 34.214C9.38499 34.0273 9.51479 33.3867 9.51479 32.6136C9.51479 31.5995 9.42826 31.2531 9.10255 31.0393C8.60295 30.719 0.641338 30.6658 0.22991 31.0121Z" fill="#BFE0EE"/>
<path d="M9.86086 49.9553L6.62903 53.9574L7.21433 54.8911C8.3425 56.7325 8.55964 56.6251 11.8347 52.623C13.4396 50.6491 14.8502 48.8348 14.9588 48.5938C15.1106 48.2203 14.9809 47.9 14.3727 47.0466C13.9392 46.4592 13.4829 45.9793 13.3319 45.9793C13.2013 45.9803 11.6396 47.7675 9.86086 49.9553Z" fill="#BFE0EE"/>
</g>
<defs>
<clipPath id="clip0_520_61">
<rect width="80" height="72" fill="white"/>
</clipPath>
</defs>
</svg>
