<svg width="72" height="72" viewBox="0 0 72 72" fill="none" xmlns="http://www.w3.org/2000/svg">
<g clip-path="url(#clip0_12_102)">
<path d="M15.5526 18.7441C16.4067 19.5982 17.7876 19.5982 18.6346 18.7441C19.4887 17.8899 19.4887 16.5091 18.6346 15.6621L14.008 11.0354C13.1538 10.1813 11.773 10.1813 10.9259 11.0354C10.0718 11.8896 10.0718 13.2704 10.9259 14.1175L15.5526 18.7441ZM56.5586 17.7832L61.1425 13.1993C61.9824 12.3522 61.9824 10.9856 61.1425 10.1457C60.2955 9.30579 58.9289 9.30579 58.089 10.1457L53.5122 14.7296C52.6723 15.5695 52.6723 16.9433 53.5122 17.7832C54.3521 18.6231 55.7187 18.6231 56.5586 17.7832ZM35.5894 11.7188C36.7923 11.7188 37.7674 10.7436 37.7674 9.54068V2.99936C37.7674 1.79644 36.7923 0.821289 35.5894 0.821289C34.3864 0.821289 33.4113 1.79644 33.4113 2.99936V9.54068C33.4113 10.7436 34.3864 11.7188 35.5894 11.7188ZM9.43118 33.5208H2.88986C1.68694 33.5208 0.711792 34.4959 0.711792 35.6989C0.711792 36.9018 1.68694 37.8769 2.88986 37.8769H9.43118C10.6341 37.8769 11.6093 36.9018 11.6093 35.6989C11.6093 34.4959 10.6341 33.5208 9.43118 33.5208ZM35.5894 16.0678C24.7488 16.0678 15.9583 24.8583 15.9583 35.6989C15.9583 46.5394 24.7488 55.33 35.5894 55.33C46.4299 55.33 55.2204 46.5394 55.2204 35.6989C55.2204 24.8583 46.4299 16.0678 35.5894 16.0678ZM68.2889 33.5208H61.7475C60.5446 33.5208 59.5695 34.4959 59.5695 35.6989C59.5695 36.9018 60.5446 37.8769 61.7475 37.8769H68.2889C69.4918 37.8769 70.4669 36.9018 70.4669 35.6989C70.4669 34.4959 69.4918 33.5208 68.2889 33.5208ZM55.6262 52.6536C54.772 51.7995 53.3912 51.7995 52.5441 52.6536C51.69 53.5078 51.69 54.8886 52.5441 55.7357L57.1707 60.3623C58.0249 61.2164 59.4058 61.2164 60.2528 60.3623C61.1069 59.5081 61.1069 58.1273 60.2528 57.2803L55.6262 52.6536ZM16.8622 51.3724L12.2783 55.9563C11.4384 56.8033 11.4384 58.17 12.2783 59.0099C13.1182 59.8498 14.492 59.8498 15.3319 59.0099L19.9158 54.426C20.7557 53.5861 20.7557 52.2123 19.9158 51.3724C19.0759 50.5254 17.7093 50.5254 16.8622 51.3724ZM35.5894 59.679C34.3864 59.679 33.4113 60.6541 33.4113 61.857V68.3984C33.4113 69.6013 34.3864 70.5764 35.5894 70.5764C36.7923 70.5764 37.7674 69.6013 37.7674 68.3984V61.857C37.7674 60.6541 36.7923 59.679 35.5894 59.679Z" fill="#BFE0EE"/>
</g>
<defs>
<clipPath id="clip0_12_102">
<rect width="71.1787" height="71.1787" fill="white" transform="translate(0 0.109497)"/>
</clipPath>
</defs>
</svg>
