<svg width="72" height="72" viewBox="0 0 72 72" fill="none" xmlns="http://www.w3.org/2000/svg">
<path d="M61.9325 1.16003C61.687 1.22836 61.2912 1.39207 61.0456 1.55578C60.7865 1.7195 57.8682 4.55597 54.5541 7.88357C50.4357 12.002 48.4577 14.0889 48.3082 14.4299C48.0491 15.0847 48.0491 16.0392 48.3082 16.6941C48.5943 17.376 54.7862 23.6084 55.5364 23.9628C56.2048 24.2767 57.2141 24.2903 57.896 24.0177C58.5231 23.745 70.3202 12.0297 70.8384 11.1436C71.3431 10.3115 71.3431 9.22031 70.8384 8.38894C70.4156 7.66648 64.4423 1.70597 63.8558 1.40631C63.3234 1.14651 62.4642 1.0376 61.9325 1.16003Z" fill="#BFE0EE"/>
<path d="M36.4427 19.9398C36.2249 19.9668 35.5423 20.0629 34.9423 20.1441C33.1009 20.3896 30.6189 21.2758 28.9412 22.2851C21.0183 27.0178 18.0864 36.9053 22.1913 45.0887C23.3508 47.3799 25.1097 49.6028 26.1873 50.121C26.8962 50.462 27.865 50.489 28.5739 50.2029C28.9149 50.0527 30.5242 48.5387 33.4155 45.6617L37.7389 41.3383L40.3981 43.9975L43.0574 46.6567L45.0625 44.6381L47.0804 42.6337L44.4212 39.9745L41.7619 37.3145L46.0853 32.9911C48.9631 30.0999 50.477 28.4905 50.6265 28.1496C50.9127 27.4406 50.8856 26.4719 50.5447 25.7629C50.3809 25.4355 49.8763 24.8219 49.3716 24.3856C46.9437 22.2446 43.9848 20.7719 40.9434 20.2124C39.7981 20.0081 37.1389 19.8444 36.4427 19.9398Z" fill="#BFE0EE"/>
<path d="M53.7904 37.3423C53.5448 41.4066 51.7582 45.2524 48.7168 48.2939C45.6753 51.3353 41.8295 53.1219 37.7787 53.3675L36.3744 53.4493V56.3136V59.1778L37.8471 59.0959C49.3439 58.4681 58.8904 48.9217 59.5182 37.4113L59.6 35.9522H56.7358H53.8715L53.7904 37.3423Z" fill="#BFE0EE"/>
<path d="M65.5605 36.3195C65.5605 36.538 65.4921 37.4377 65.4103 38.3381C64.1967 52.5354 52.9583 63.7731 38.7617 64.9867C37.862 65.0685 36.9616 65.1369 36.7566 65.1369H36.3751V68.0011V70.8646L37.5751 70.7963C43.4801 70.4148 47.4896 69.3642 52.2088 66.964C55.4275 65.3276 58.3871 63.1723 60.9915 60.5679C63.5959 57.9635 65.7512 55.0039 67.3876 51.7852C69.7878 47.0667 70.8384 43.0565 71.2199 37.138L71.2882 35.9515H68.424H65.5598V36.3195H65.5605Z" fill="#BFE0EE"/>
<path d="M14.8264 47.8974C14.2264 48.1565 2.40219 59.9123 1.91106 60.7579C1.4064 61.59 1.4064 62.6812 1.91106 63.5126C2.34738 64.2763 8.3207 70.2091 8.96202 70.5229C9.69872 70.9045 10.844 70.8504 11.5672 70.414C12.4533 69.8959 24.1686 58.0987 24.4412 57.4716C24.7139 56.7897 24.7003 55.7804 24.3864 55.112C24.032 54.3618 17.7989 48.17 17.117 47.8838C16.4771 47.6248 15.4542 47.6248 14.8264 47.8974Z" fill="#BFE0EE"/>
</svg>
