<?xml version="1.0" encoding="utf-8"?>
<!-- Svg Vector Icons : http://www.onlinewebfonts.com/icon -->
<!DOCTYPE svg PUBLIC "-//W3C//DTD SVG 1.1//EN" "http://www.w3.org/Graphics/SVG/1.1/DTD/svg11.dtd">
<svg version="1.1" xmlns="http://www.w3.org/2000/svg" xmlns:xlink="http://www.w3.org/1999/xlink" x="0px" y="0px" viewBox="0 0 1000 1000" enable-background="new 0 0 1000 1000" xml:space="preserve">
<metadata> Svg Vector Icons : http://www.onlinewebfonts.com/icon </metadata>
<g><path d="M650,154.4V80c0-38.6-31.4-70-70-70H420c-38.6,0-70,31.4-70,70v74.4C140.2,168.2,140,210,140,210v100h720V210C860,210,859.8,168.2,650,154.4z M430,90h140v60.9c-21.7-0.5-44.9-0.9-70-0.9s-48.3,0.3-70,0.9V90z"/><path d="M190,370l60,620h500l60-620H190z M351.7,890c-0.6,0-1.1,0-1.7,0c-15.8,0-29-12.4-29.9-28.3l-20-360c-0.9-16.5,11.8-30.7,28.3-31.6c16.6-0.9,30.7,11.8,31.6,28.3l20,360C380.9,874.9,368.2,889,351.7,890z M530,860c0,16.6-13.4,30-30,30s-30-13.4-30-30V500c0-16.6,13.4-30,30-30s30,13.4,30,30V860z M680,861.7c-0.9,16-14.1,28.3-29.9,28.3c-0.6,0-1.1,0-1.7,0c-16.5-0.9-29.2-15.1-28.3-31.6l20-360c0.9-16.6,15.3-29.1,31.6-28.3c16.5,0.9,29.2,15.1,28.3,31.6L680,861.7z"/></g>
</svg>