<svg width="72" height="72" viewBox="0 0 72 72" fill="none" xmlns="http://www.w3.org/2000/svg">
<path d="M21.0525 1.53308C21.387 1.53308 21.6788 1.65408 21.928 1.90321C22.1771 2.15234 22.2981 2.44417 22.2981 2.77871V60.0776C22.2981 60.5972 22.0774 60.9602 21.6361 61.1666L2.95173 71.1316C2.76666 71.2384 2.57448 71.2882 2.36806 71.2882C2.03352 71.2882 1.74169 71.1672 1.49257 70.9181C1.24344 70.669 1.12244 70.3771 1.12244 70.0426V12.7437C1.12244 12.2241 1.34309 11.8611 1.7844 11.6547L20.4688 1.68967C20.6468 1.58291 20.8461 1.53308 21.0525 1.53308ZM69.632 1.53308C69.9665 1.53308 70.2583 1.65408 70.5074 1.90321C70.7566 2.15234 70.8776 2.44417 70.8776 2.77871V60.0776C70.8776 60.5972 70.6569 60.9602 70.2156 61.1666L51.5312 71.1316C51.3461 71.2384 51.154 71.2882 50.9475 71.2882C50.613 71.2882 50.3212 71.1672 50.072 70.9181C49.8229 70.669 49.7019 70.3771 49.7019 70.0426V12.7437C49.7019 12.2241 49.9226 11.8611 50.3639 11.6547L69.0483 1.68967C69.2262 1.58291 69.4255 1.53308 69.632 1.53308ZM26.035 1.53308C26.2414 1.53308 26.4265 1.56867 26.5831 1.64697L46.5131 11.612C46.9829 11.8682 47.2107 12.2455 47.2107 12.7437V70.0426C47.2107 70.3771 47.0896 70.669 46.8405 70.9181C46.5914 71.1672 46.2996 71.2882 45.965 71.2882C45.7586 71.2882 45.5735 71.2526 45.4169 71.1743L25.4869 61.2093C25.0171 60.9531 24.7894 60.5758 24.7894 60.0776V2.77871C24.7894 2.44417 24.9104 2.15234 25.1595 1.90321C25.4086 1.65408 25.7004 1.53308 26.035 1.53308Z" fill="#E14796"/>
</svg>
