<svg width="48" height="48" viewBox="0 0 48 48" fill="none" xmlns="http://www.w3.org/2000/svg">
<path d="M24 4V17L30 20.44M20 8L24 10L28 8H20Z" stroke="#2C3E50" stroke-width="3" stroke-linecap="round" stroke-linejoin="round"/>
<path d="M41.3205 14L30.0622 20.5L30.083 27.4161M35.8564 12.5359L36.1243 17L39.8564 19.4641L35.8564 12.5359Z" stroke="#2C3E50" stroke-width="3" stroke-linecap="round" stroke-linejoin="round"/>
<path d="M41.3205 34L30.0622 27.5L24.083 30.9761M39.8564 28.5359L36.1243 31L35.8564 35.4641L39.8564 28.5359Z" stroke="#2C3E50" stroke-width="3" stroke-linecap="round" stroke-linejoin="round"/>
<path d="M24 44V31L18 27.56M28 40L24 38L20 40H28Z" stroke="#2C3E50" stroke-width="3" stroke-linecap="round" stroke-linejoin="round"/>
<path d="M6.6795 34L17.9378 27.5L17.917 20.5839M12.1436 35.4641L11.8757 31L8.14361 28.5359L12.1436 35.4641Z" stroke="#2C3E50" stroke-width="3" stroke-linecap="round" stroke-linejoin="round"/>
<path d="M6.6795 14L17.9378 20.5L23.917 17.0239M8.14361 19.4641L11.8757 17L12.1436 12.5359L8.14361 19.4641Z" stroke="#2C3E50" stroke-width="3" stroke-linecap="round" stroke-linejoin="round"/>
</svg>
