<svg width="80" height="80" viewBox="0 0 80 80" fill="none" xmlns="http://www.w3.org/2000/svg">
<path d="M72.56 18.184L71.384 18.552L65.136 19.112L63.368 21.928L62.088 21.52L57.12 17.04L56.4 14.712L55.44 12.224L52.312 9.42401L48.624 8.70401L48.536 10.392L52.144 13.92L53.912 16L51.928 17.04L50.312 16.56L47.888 15.552L47.968 13.6L44.792 12.296L43.736 16.88L40.528 17.608L40.848 20.168L45.024 20.968L45.744 16.872L49.192 17.384L50.792 18.32H53.36L55.12 21.848L59.784 26.584L59.44 28.424L55.68 27.944L49.184 31.224L44.504 36.84L43.896 39.328H42.216L39.088 37.888L36.048 39.328L36.808 42.536L38.128 41.008L40.456 40.936L40.296 43.816L42.224 44.384L44.152 46.544L47.296 45.664L50.888 46.232L55.056 47.352L57.136 47.6L60.664 51.608L67.472 55.616L63.064 64.032L58.416 66.192L56.648 71L49.92 75.48L49.2 78.072C66.4 73.928 79.2 58.472 79.2 40C79.192 31.928 76.752 24.416 72.56 18.184Z" fill="#BFE0EE"/>
<path d="M44.504 60.488L41.648 55.192L44.272 49.728L41.648 48.944L38.704 45.992L32.184 44.528L30.024 40V42.688H29.072L23.456 35.072V28.816L19.336 22.12L12.8 23.288H8.39199L6.17599 21.832L8.99999 19.592L6.17599 20.24C2.78399 26.048 0.799988 32.784 0.799988 40C0.799988 61.648 18.352 79.2 40 79.2C41.664 79.2 43.304 79.056 44.92 78.856L44.512 74.104C44.512 74.104 46.312 67.048 46.312 66.808C46.304 66.576 44.504 60.488 44.504 60.488Z" fill="#BFE0EE"/>
<path d="M15.3679 13.432L22.3279 12.464L25.5359 10.704L29.1439 11.744L34.9119 11.424L36.8879 8.31999L39.7679 8.79199L46.7679 8.13599L48.6959 6.00799L51.416 4.19199L55.264 4.76799L56.6639 4.55199C51.6159 2.17599 45.9759 0.791992 39.9999 0.791992C27.8319 0.791992 16.9519 6.33599 9.76794 15.048H9.78394L15.3679 13.432ZM41.6559 4.69599L45.6559 2.49599L48.2239 3.98399L44.5039 6.81599L40.9519 7.17599L39.3519 6.13599L41.6559 4.69599ZM29.7919 5.01599L31.5599 5.75199L33.8719 5.01599L35.1359 7.19999L29.7919 8.59999L27.2239 7.09599C27.2239 7.09599 29.7359 5.47999 29.7919 5.01599Z" fill="#BFE0EE"/>
</svg>
