<svg width="73" height="73" viewBox="0 0 73 73" fill="none" xmlns="http://www.w3.org/2000/svg">
<path d="M7.1814 0.126823C6.76256 0.204521 5.81684 0.545662 5.08868 0.902344C2.4528 2.17366 0.514736 4.794 0.0966356 7.63116C-0.104644 9.04234 0.00339552 9.81712 0.468856 10.4062C0.980195 11.0729 1.64694 11.2586 3.38372 11.2586C5.19746 11.2586 5.98852 11.5532 6.4377 12.3901C6.70114 12.8556 6.71668 14.4369 6.79438 40.0957L6.87207 67.3048L7.21322 68.1572C7.92658 69.8777 9.41471 71.3666 11.136 72.08L11.9884 72.4211L32.4376 72.4677C55.0424 72.5144 53.8946 72.561 55.6159 71.522C56.7015 70.8708 57.6775 69.7704 58.2976 68.4991L58.8097 67.4602L58.8874 40.1734C58.9651 13.6622 58.9807 12.8711 59.2596 12.3908C59.4298 12.1274 59.8331 11.7552 60.1743 11.5694C61.1822 10.9959 62.3292 11.306 63.1358 12.4064C63.4614 12.8252 63.4614 12.9488 63.5391 30.9182L63.6168 49.0112L64.0356 49.7246C64.9036 51.2127 66.0514 51.895 67.7719 52.0038C68.8885 52.0659 69.0432 52.0349 69.9734 51.5849C70.6712 51.2438 71.1514 50.8716 71.5081 50.3913C72.6085 48.9646 72.5471 50.3602 72.5005 28.6856L72.4538 9.16666L72.0972 8.08109C70.8103 4.25159 68.221 1.66232 64.3915 0.375458L63.306 0.0187759L35.6314 0.00324249C18.7476 -0.0130386 7.6624 0.0335846 7.1814 0.126823ZM63.4451 2.49852C65.7709 3.1031 68.0494 4.90131 69.1505 7.01031C70.2671 9.1341 70.205 7.81616 70.205 29.0875C70.205 47.785 70.1894 48.2505 69.8949 48.7308C69.4605 49.4441 68.9026 49.7542 68.0346 49.7697C67.2124 49.7853 66.6855 49.4907 66.112 48.7152C65.7864 48.2964 65.7864 48.1728 65.7087 30.2811L65.631 12.2658L65.2122 11.4747C64.4063 9.92442 62.933 9.04086 61.2125 9.04086C59.5379 9.04086 58.0964 9.89334 57.2121 11.397L56.7932 12.1104L56.7155 39.3971L56.6393 66.6846L56.2826 67.4602C55.8172 68.468 54.9647 69.3516 54.0034 69.8015L53.2279 70.1737H32.8402C13.1347 70.1737 12.4369 70.1582 11.8012 69.8792C10.8555 69.4448 9.83207 68.4222 9.41397 67.492L9.04175 66.6854L8.96406 39.3986L8.8871 12.1111L8.54596 11.491C7.6624 9.84746 6.31337 9.1193 3.92614 8.97944L2.29814 8.8862V8.37486C2.29814 7.67704 2.79394 6.1889 3.2594 5.44446C4.12742 4.09544 5.47644 3.02614 6.94904 2.56068C7.75563 2.29724 9.44506 2.28171 35.166 2.28171C59.2434 2.26617 62.654 2.29724 63.4451 2.49852Z" fill="white"/>
<path d="M17.5695 22.7626C17.1351 23.0105 17.0271 23.197 17.0271 23.7705C17.0271 24.0806 17.1514 24.4062 17.3372 24.5919C17.6317 24.8864 17.8485 24.902 21.4301 24.902C25.0117 24.902 25.2285 24.8864 25.6163 24.5764C25.9108 24.344 26.0196 24.1109 26.0196 23.7394C26.0196 23.3672 25.9108 23.1349 25.6163 22.9025C25.2285 22.5924 25.0117 22.5769 21.5389 22.5769C19.1043 22.5917 17.7708 22.6383 17.5695 22.7626Z" fill="white"/>
<path d="M17.2905 32.0024C16.9338 32.3901 16.9494 33.3203 17.306 33.6304C17.5539 33.8627 18.0816 33.8938 21.5699 33.8938C25.4927 33.8938 25.5386 33.8938 25.7717 33.5527C26.1128 33.0724 26.0817 32.4057 25.7095 32.0334C25.415 31.7389 25.1982 31.7234 21.4767 31.7234C17.864 31.7234 17.5229 31.7389 17.2905 32.0024Z" fill="white"/>
<path d="M17.5695 40.9015C17.1351 41.1494 17.0271 41.3359 17.0271 41.9094C17.0271 42.2195 17.1514 42.5451 17.3372 42.7308C17.6317 43.0254 17.8485 43.0409 23.7715 43.0409C29.6944 43.0409 29.9112 43.0254 30.2058 42.7308C30.5158 42.4208 30.6246 41.5838 30.3915 41.2427C30.0659 40.7617 29.5701 40.7158 23.7404 40.7158C19.6622 40.7313 17.7863 40.778 17.5695 40.9015Z" fill="white"/>
<path d="M17.2905 50.142C16.9338 50.5297 16.9494 51.4599 17.306 51.77C17.5539 52.0024 18.0816 52.0334 21.5699 52.0334C25.4927 52.0334 25.5386 52.0334 25.7717 51.6923C26.1128 51.212 26.0817 50.5453 25.7095 50.1731C25.415 49.8785 25.1982 49.863 21.4767 49.863C17.864 49.863 17.5229 49.8785 17.2905 50.142Z" fill="white"/>
<path d="M17.5695 59.0412C17.1351 59.2891 17.0271 59.4756 17.0271 60.0491C17.0271 60.3591 17.1514 60.6847 17.3372 60.8705C17.6317 61.165 17.8485 61.1805 21.4923 61.1805C25.3218 61.1805 25.3528 61.1805 25.6784 60.8239C26.1594 60.3125 26.1284 59.5836 25.6163 59.1803C25.2285 58.8703 25.0117 58.8547 21.5389 58.8547C19.1043 58.871 17.7708 58.9176 17.5695 59.0412Z" fill="white"/>
</svg>
