<svg width="74" height="74" viewBox="0 0 74 74" fill="none" xmlns="http://www.w3.org/2000/svg">
<path d="M29.0013 14.0725C24.6605 14.9842 20.8443 17.3825 18.2262 20.862C16.0817 23.6992 14.7475 27.3133 14.5617 30.8261L14.4603 32.6332L13.5146 32.7346C11.9606 32.9033 10.7788 33.1734 9.61335 33.613C5.50931 35.1322 2.26663 38.7463 1.06782 43.1205C0.611985 44.7921 0.629005 48.356 1.13516 50.0787C2.50342 54.8917 6.08355 58.4888 10.8965 59.8741L12.2307 60.2626H35.4519H58.6731L60.3448 59.8067C71.2546 56.8009 76.4561 44.8269 71.1873 34.9131C70.2245 33.089 69.2285 31.8059 67.6575 30.3533C65.698 28.5292 62.8778 26.9929 60.2937 26.3336C57.7777 25.675 54.1969 25.692 51.7482 26.3336C51.191 26.4853 50.5827 26.6377 50.397 26.688C50.1098 26.7554 49.9914 26.5696 49.5867 25.4212C47.915 20.6585 43.4898 16.3687 38.4571 14.646C35.6887 13.701 31.8555 13.465 29.0013 14.0725ZM36.5501 17.7037C42.2244 19.3421 45.957 23.5305 47.1395 29.5933C47.3422 30.573 47.545 31.4344 47.5953 31.5017C47.6627 31.5861 48.5751 31.2649 49.6392 30.7921C52.5437 29.5422 53.3888 29.3565 56.0565 29.3565C57.9139 29.3565 58.5895 29.4408 59.6536 29.745C65.6824 31.4677 69.7361 36.7876 69.7531 42.9688C69.7531 45.6883 69.23 47.7144 67.9631 49.9603C66.2234 53.0505 62.9977 55.4829 59.3502 56.513L57.999 56.8845H35.3683H12.7376L11.3694 56.4286C6.94491 54.9257 4.20838 51.1591 4.19211 46.5489C4.19211 43.5933 5.13783 41.3304 7.23203 39.2362C9.83313 36.6692 12.7036 35.8078 16.8417 36.3991C17.6016 36.5004 18.2773 36.5345 18.3276 36.4834C18.3779 36.4324 18.3106 35.369 18.1759 34.1361C17.9901 32.4808 17.9561 31.5017 18.0745 30.3703C18.7501 23.5978 23.7488 18.3963 30.6397 17.2649C32.1426 17.0281 34.8784 17.2308 36.5501 17.7037Z" fill="white"/>
</svg>
