<svg width="74" height="74" viewBox="0 0 74 74" fill="none" xmlns="http://www.w3.org/2000/svg">
<path d="M56.7728 32.9522L56.8246 32.9818L37 0.73999L17.1754 32.9818L17.2272 32.9448C13.949 37.1776 11.9806 42.476 11.9806 48.2406C11.9806 62.0564 23.1842 73.26 37 73.26C50.8158 73.26 62.0194 62.0564 62.0194 48.2406C62.0194 42.476 60.051 37.1776 56.7728 32.9522ZM37 67.3918C26.4254 67.3918 17.8488 58.8152 17.8488 48.2406C17.8488 42.9866 19.9652 38.221 23.3988 34.7652H23.3914L35.4682 16.1246L37 13.6456L39.6862 18.389L49.839 34.0622C53.7092 37.5698 56.1586 42.6166 56.1586 48.248C56.1512 58.8152 47.582 67.3918 37 67.3918Z" fill="white"/>
<path d="M33.9141 46.1686C34.7281 45.2584 35.1351 44.067 35.1351 42.6092C35.1351 41.1366 34.7651 39.9896 34.0251 39.1682C33.2851 38.3468 32.2565 37.9324 30.9393 37.9324C29.5629 37.9324 28.4751 38.3764 27.6611 39.2718C26.8471 40.1672 26.4475 41.3734 26.4475 42.8904C26.4475 44.289 26.8323 45.4138 27.6019 46.2574C28.3715 47.1084 29.3927 47.5302 30.6729 47.5302C32.0197 47.5302 33.1001 47.0788 33.9141 46.1686ZM28.9635 45.1548C28.5195 44.5924 28.2901 43.8006 28.2901 42.772C28.2901 41.7286 28.5195 40.9072 28.9783 40.3226C29.4371 39.738 30.0661 39.442 30.8579 39.442C31.6349 39.442 32.2343 39.7232 32.6635 40.2856C33.0927 40.848 33.3073 41.6472 33.3073 42.6758C33.3073 43.734 33.0927 44.548 32.6561 45.1252C32.2195 45.7024 31.6053 45.991 30.8061 45.991C30.0217 45.9984 29.4149 45.7172 28.9635 45.1548Z" fill="white"/>
<path d="M42.0541 47.4266C40.6851 47.4266 39.5973 47.878 38.7833 48.7882C37.9693 49.6984 37.5697 50.9046 37.5697 52.429C37.5697 53.8054 37.9545 54.9228 38.7167 55.7812C39.4789 56.6396 40.5075 57.0688 41.7951 57.0688C43.1197 57.0688 44.2001 56.6174 45.0215 55.7072C45.8429 54.797 46.2573 53.6204 46.2573 52.1626C46.2573 50.6604 45.8873 49.4986 45.1399 48.6698C44.3925 47.841 43.3639 47.4266 42.0541 47.4266ZM43.7635 54.6416C43.3269 55.2262 42.7127 55.5148 41.9135 55.5148C41.1365 55.5148 40.5297 55.2336 40.0783 54.6712C39.6343 54.1088 39.4049 53.3244 39.4049 52.318C39.4049 51.2746 39.6269 50.4532 40.0783 49.8686C40.5223 49.284 41.1587 48.988 41.9727 48.988C42.7349 48.988 43.3269 49.2618 43.7635 49.8168C44.2001 50.3718 44.4147 51.1636 44.4147 52.1996C44.4147 53.243 44.2001 54.057 43.7635 54.6416Z" fill="white"/>
<path d="M41.2327 38.2062L29.2965 56.8986H31.3019L43.2307 38.2062H41.2327Z" fill="white"/>
</svg>
