<svg width="74" height="74" viewBox="0 0 74 74" fill="none" xmlns="http://www.w3.org/2000/svg">
<path d="M49.0768 20.8828C49.0768 14.9702 44.2446 10.138 38.332 10.138C32.4194 10.138 27.5872 14.9702 27.5872 20.8828H32.9522C32.9522 17.9302 35.3646 15.5178 38.3172 15.5178C41.2698 15.5178 43.6822 17.9302 43.6822 20.8828C43.6822 23.8354 41.2698 26.2478 38.3172 26.2478H6.10498V31.6128H38.332C44.2446 31.6424 49.0768 26.7954 49.0768 20.8828Z" fill="white"/>
<path d="M62.5004 20.8828C56.5878 20.8828 51.7556 25.715 51.7556 31.6276H57.1354C57.1354 28.675 59.5478 26.2626 62.5004 26.2626C65.453 26.2626 67.8654 28.675 67.8654 31.6276C67.8654 34.5802 65.4604 37.0074 62.5004 37.0074H0.73999V42.3724H62.5152C68.4278 42.3724 73.26 37.5402 73.26 31.6276C73.26 25.715 68.413 20.8828 62.5004 20.8828Z" fill="white"/>
<path d="M54.4565 47.7522H16.8497V53.1172H54.4565C56.0697 53.1172 57.1353 54.1828 57.1353 55.796C57.1353 57.4092 56.0697 58.4822 54.4565 58.4822C52.8433 58.4822 51.7777 57.4166 51.7777 55.796H46.4127C46.4127 60.0954 49.9129 63.8546 54.4713 63.8546C59.0371 63.8546 62.5299 60.3544 62.5299 55.796C62.5299 51.2302 59.0223 47.7522 54.4565 47.7522Z" fill="white"/>
</svg>
