<svg width="74" height="74" viewBox="0 0 74 74" fill="none" xmlns="http://www.w3.org/2000/svg">
<path d="M49.449 0.850273C46.3706 1.40305 44.0026 3.60159 43.307 6.55197C43.1228 7.31787 43.0939 10.7789 43.0939 31.3738V55.3158L42.3991 56.1808C41.4911 57.3012 40.7541 58.7908 40.3848 60.2797C39.9593 61.9676 40.0444 64.4074 40.5979 66.0243C41.7893 69.5275 44.6265 72.1374 48.1718 73.0025C49.4342 73.3 51.803 73.3 53.0935 72.9884C56.001 72.2936 58.6539 70.1661 60.0296 67.4288C60.7673 65.9251 60.9797 65.0601 61.0648 63.1879C61.1359 61.7412 61.0929 61.2868 60.8376 60.2945C60.4691 58.7908 59.7313 57.316 58.8234 56.1816L58.1285 55.3165V31.3738C58.1285 5.17632 58.1714 6.58009 57.2916 4.84998C56.4406 3.16203 54.7104 1.68722 52.9515 1.14775C51.874 0.807358 50.357 0.680069 49.449 0.850273ZM52.5408 4.127C53.4206 4.5525 54.3708 5.48859 54.7674 6.35365L55.0797 7.0204L55.1507 31.7852L55.2218 56.536L56.0447 57.4581C58.9662 60.6919 58.9099 65.2029 55.9307 68.1385C52.0302 71.982 45.4634 70.5213 43.5054 65.3864C42.4842 62.6913 43.0939 59.741 45.1792 57.4573L46.0021 56.5353L46.0732 31.7845C46.1583 4.4378 46.0732 6.67925 47.0093 5.44494C48.2436 3.82877 50.6686 3.24714 52.5408 4.127Z" fill="white"/>
<path d="M49.6051 31.473L49.1937 31.8844V45.1608V58.4371L48.6401 58.7065C47.3777 59.3591 46.6399 60.2952 46.2714 61.7279C45.7608 63.7281 46.711 65.7416 48.6683 66.7628C49.3069 67.1032 49.5762 67.1602 50.6115 67.1602C51.6468 67.1602 51.9169 67.1032 52.5547 66.7628C54.5831 65.7135 55.5192 63.5572 54.8954 61.4015C54.6119 60.4654 53.7891 59.4442 52.8389 58.8767L52.0301 58.3942V45.1467V31.8844L51.6186 31.473C51.2923 31.1466 51.0799 31.0615 50.6115 31.0615C50.1438 31.0615 49.9314 31.1466 49.6051 31.473ZM51.5195 61.4859C52.7109 62.2799 52.0589 64.252 50.6115 64.252C49.1789 64.252 48.5121 62.2947 49.6754 61.4859C50.0587 61.2025 51.094 61.2165 51.5195 61.4859Z" fill="white"/>
<path d="M61.7745 13.1905C61.3202 13.559 61.1507 14.3109 61.3912 14.9066C61.7456 15.7576 61.6887 15.7435 67.235 15.7435H72.3128L72.7672 15.3321C73.1498 14.9917 73.2349 14.8215 73.2349 14.3249C73.2349 13.8284 73.1498 13.6582 72.7672 13.3178L72.3128 12.9064H67.2209C62.314 12.9064 62.1297 12.9204 61.7745 13.1905Z" fill="white"/>
<path d="M22.6418 16.112C22.4287 16.2252 22.1882 16.4383 22.1031 16.5945C22.018 16.7506 21.961 17.942 21.961 19.4168C21.961 20.8354 21.904 21.9839 21.833 21.9839C21.776 21.9839 21.1803 22.083 20.5135 22.197C18.2018 22.5944 15.5489 23.7147 13.7618 25.0194C13.2793 25.3738 12.8397 25.6721 12.7687 25.6721C12.7117 25.6721 11.9599 24.9631 11.1089 24.0973C9.39356 22.3813 9.0391 22.126 8.2732 22.126C7.40814 22.126 6.76952 23.034 6.9967 23.9271C7.05368 24.1684 7.80552 25.0475 8.84078 26.0975L10.5998 27.8706L9.81981 29.005C8.34424 31.1325 7.38002 33.4591 7.02482 35.7568L6.84056 36.9482L4.30162 37.0192C1.4652 37.1043 1.2099 37.1754 0.883565 37.9694C0.614204 38.5932 0.727425 39.1467 1.19584 39.5863C1.5503 39.9126 1.66352 39.9267 4.20246 39.9977L6.84056 40.0687L7.02482 41.218C7.37928 43.5726 8.38643 46.0124 9.83313 48.097L10.585 49.1752L9.0391 50.721C7.15284 52.5792 6.85462 53.0187 6.96858 53.7136C7.06774 54.3374 7.38002 54.6926 7.98978 54.8909C8.7135 55.1322 9.1242 54.8769 10.9971 53.0047L12.7273 51.2886L13.337 51.7422C15.5637 53.4021 18.2728 54.5365 21.181 54.9901L21.8899 55.1033L21.961 57.7695L22.032 60.4506L22.4294 60.791C23.011 61.2875 23.8339 61.2594 24.3867 60.7199L24.7981 60.3085V57.6985V55.0885L25.9614 54.9043C28.4293 54.5209 31.0534 53.4435 32.9966 52.0249C33.5213 51.6564 33.9756 51.3441 34.0178 51.3441C34.06 51.3441 34.8547 52.11 35.7908 53.0461C37.649 54.9183 38.0885 55.1736 38.8692 54.8473C39.4931 54.592 39.7062 54.3086 39.7913 53.6278C39.8623 53.1031 39.8194 53.018 39.0254 52.1811C38.557 51.6845 37.706 50.8054 37.1391 50.2519C36.203 49.3158 36.132 49.2026 36.3022 48.9473C37.1813 47.7699 37.7489 46.8619 38.1884 45.9828C40.7844 40.8198 40.5143 34.6786 37.4655 29.8272C37.04 29.1323 36.5575 28.4374 36.3873 28.2532L36.0891 27.9409L37.8762 26.1257C38.9403 25.0616 39.7062 24.1684 39.7624 23.9271C39.9896 23.0191 39.3229 22.126 38.4149 22.126C37.7481 22.126 37.1954 22.5374 35.4364 24.3105C34.6986 25.0623 34.0467 25.6721 33.9897 25.6721C33.9327 25.6721 33.4931 25.3886 33.0395 25.0482C31.9332 24.2394 29.9759 23.2471 28.5573 22.7786C27.6353 22.4664 25.4086 21.9846 24.9262 21.9846C24.8551 21.9846 24.7981 20.8354 24.7981 19.4176C24.7981 17.9427 24.7412 16.7514 24.6561 16.5812C24.4718 16.2548 23.791 15.8863 23.3514 15.8863C23.1664 15.8989 22.8542 15.984 22.6418 16.112ZM26.6696 25.3028C31.4641 26.5223 35.0383 29.9692 36.5131 34.8199C36.8675 35.9832 36.9105 36.2947 36.9105 38.437C36.9245 40.4513 36.8823 40.9479 36.5982 41.9543C35.2506 46.8901 31.3642 50.6633 26.3573 51.8688C24.8966 52.2232 21.8611 52.2232 20.4003 51.8688C15.3935 50.6641 11.507 46.9049 10.1595 41.9691C9.87605 40.9479 9.83312 40.4513 9.84718 38.437C9.84718 36.2955 9.88937 35.9832 10.2446 34.8199C11.8896 29.4298 16.3007 25.6432 21.719 24.9764C23.1376 24.807 25.237 24.9343 26.6696 25.3028Z" fill="white"/>
<path d="M62.1577 18.9914C61.6753 19.2045 61.2498 19.8424 61.2498 20.3818C61.2498 20.7504 61.363 20.9916 61.7322 21.3601L62.2147 21.8426H64.229H66.2433L66.725 21.3601C67.3636 20.7215 67.3918 20.0555 66.7961 19.4028L66.3846 18.9344L64.4133 18.9063C63.3351 18.8922 62.3139 18.9344 62.1577 18.9914Z" fill="white"/>
<path d="M61.7323 25.4449C60.9524 26.2249 61.1226 27.2179 62.1008 27.7285C62.6544 28.012 65.6047 28.0268 66.2707 27.7426C67.1358 27.3741 67.4481 26.5371 67.0085 25.6861C66.6822 25.0764 66.2426 24.9624 64.1432 24.9624H62.214L61.7323 25.4449Z" fill="white"/>
<path d="M61.7463 31.4019C61.5621 31.5862 61.3637 31.9125 61.3068 32.1109C61.1787 32.6215 61.3497 33.1461 61.7463 33.5575L62.0867 33.8979H67.1217C70.5827 33.8979 72.2706 33.841 72.5111 33.7418C72.9795 33.5287 73.3621 32.7206 73.2348 32.2241C73.1927 32.011 72.9795 31.6706 72.7672 31.4441L72.3979 31.0608H67.249H62.086L61.7463 31.4019Z" fill="white"/>
<path d="M62.1577 37.1466C61.6753 37.3597 61.2498 37.9976 61.2498 38.537C61.2498 38.9056 61.363 39.1468 61.7322 39.5161L62.2147 39.9985H64.229H66.2433L66.725 39.5161C67.3636 38.8774 67.3918 38.2114 66.7961 37.5588L66.3846 37.0911L64.4133 37.063C63.3351 37.0474 62.3139 37.0896 62.1577 37.1466Z" fill="white"/>
<path d="M61.7323 43.6001C61.1647 44.1676 61.0796 44.8625 61.534 45.4153C62.0024 46.0251 62.4841 46.1242 64.5125 46.068L66.3847 46.0258L66.7961 45.5574C67.3918 44.9047 67.3637 44.2379 66.7251 43.6001L66.2433 43.1176H64.229H62.2148L61.7323 43.6001Z" fill="white"/>
<path d="M61.7463 49.5578C61.3497 49.9693 61.1787 50.4939 61.3068 51.0045C61.3637 51.2028 61.5621 51.5292 61.7463 51.7134L62.0867 52.0538H67.1927H72.3128L72.7671 51.6424C73.1497 51.302 73.2348 51.1318 73.2348 50.6353C73.2348 50.1387 73.1497 49.9685 72.7671 49.6281L72.3128 49.2167H67.1927H62.0867L61.7463 49.5578Z" fill="white"/>
</svg>
