<svg width="74" height="74" viewBox="0 0 74 74" fill="none" xmlns="http://www.w3.org/2000/svg">
<path d="M36.1061 0.907963C35.5244 1.16326 34.9287 1.88624 34.8296 2.45382C34.7874 2.70912 34.7585 5.14816 34.7874 7.89948C34.8296 12.6784 34.8444 12.9056 35.1278 13.2741C35.6806 14.0259 36.1349 14.2524 37.0281 14.2524C37.9213 14.2524 38.3749 14.0252 38.9285 13.2741C39.2119 12.8915 39.2259 12.7213 39.2259 7.5169C39.2259 2.31248 39.2119 2.14228 38.9285 1.7597C38.7723 1.54732 38.4748 1.23504 38.2758 1.09296C37.8074 0.737762 36.6729 0.638602 36.1061 0.907963Z" fill="white"/>
<path d="M11.9984 10.8351C11.0482 11.2465 10.5095 12.3239 10.7219 13.4302C10.7929 13.8979 11.3317 14.4936 14.5936 17.7555C18.6776 21.8396 18.7206 21.8677 19.9682 21.6272C20.6631 21.4999 21.5141 20.6489 21.6413 19.9541C21.8826 18.7205 21.8397 18.6495 17.9117 14.6927C15.9123 12.6791 14.0689 10.949 13.8136 10.8351C13.246 10.5938 12.5512 10.5938 11.9984 10.8351Z" fill="white"/>
<path d="M60.2138 10.835C59.9866 10.9483 58.1433 12.6784 56.1438 14.6927C52.2159 18.6494 52.173 18.7197 52.4142 19.9541C52.5422 20.6489 53.3925 21.4999 54.0873 21.6272C55.335 21.8684 55.3779 21.8255 59.3909 17.8266C62.0001 15.2314 63.1627 13.9697 63.2766 13.6433C63.5889 12.6791 63.2485 11.6579 62.3834 11.02C61.901 10.6648 60.7806 10.5657 60.2138 10.835Z" fill="white"/>
<path d="M34.5462 16.7484C27.881 17.6416 21.7827 22.052 18.7339 28.1784C17.4293 30.8158 16.7914 33.2556 16.6493 36.2333C16.4932 39.4102 17.0607 42.1045 18.6917 45.9044C18.7487 46.0465 16.9475 46.0886 10.4666 46.1175C2.32659 46.1597 2.15639 46.1597 1.77381 46.4579C1.02197 47.0107 0.795532 47.4651 0.795532 48.3582C0.795532 49.2514 1.02271 49.7058 1.77381 50.2585L2.15639 50.556H37.0274H71.8984L72.281 50.2585C73.0329 49.7058 73.2593 49.2514 73.2593 48.3582C73.2593 47.4651 73.0321 47.0107 72.281 46.4579C71.8984 46.1597 71.7282 46.1597 63.6023 46.1175C59.0498 46.1034 55.3209 46.0605 55.3209 46.0465C55.3209 46.0324 55.5481 45.4789 55.8175 44.827C58.8382 37.68 57.5336 29.8235 52.3291 23.7118C49.5068 20.3936 45.0261 17.7844 40.7008 16.9474C39.2681 16.6633 35.9218 16.5501 34.5462 16.7484ZM39.2541 21.2861C42.1467 21.6687 45.1252 22.917 47.2379 24.6331C53.2934 29.5681 54.6971 38.7715 50.4147 45.5499L50.0743 46.0886H37.0281H23.982L23.5994 45.4789C22.2097 43.2811 21.3305 40.5016 21.1885 37.8636C21.0464 34.8998 21.5429 32.3898 22.8475 29.7095C24.3934 26.5186 26.549 24.3778 29.7251 22.8319C30.6612 22.3783 31.8378 21.8958 32.3484 21.7685C34.5462 21.1728 37.1125 20.9886 39.2541 21.2861Z" fill="white"/>
<path d="M2.07128 34.9428C1.12112 35.3535 0.582401 36.4457 0.780721 37.5091C0.908001 38.1758 1.61766 38.9558 2.25554 39.14C2.59594 39.2392 4.52438 39.2821 7.84254 39.2533C12.6925 39.2103 12.9189 39.1963 13.2882 38.9129C14.04 38.3601 14.2672 37.9065 14.2672 37.0133C14.2672 36.1201 14.04 35.6657 13.2889 35.113C12.9204 34.8295 12.7073 34.8155 7.70194 34.7866C3.58902 34.7585 2.41168 34.7866 2.07128 34.9428Z" fill="white"/>
<path d="M61.0641 34.9428C60.1139 35.3542 59.5752 36.4457 59.7735 37.5091C59.9008 38.1758 60.6105 38.9558 61.2483 39.14C61.5887 39.2392 63.5172 39.2821 66.8353 39.2533C71.6853 39.2103 71.9125 39.1963 72.281 38.9129C73.0328 38.3601 73.26 37.9065 73.26 37.0133C73.26 36.1201 73.0328 35.6657 72.2817 35.113C71.9132 34.8295 71.7001 34.8155 66.6947 34.7866C62.5818 34.7585 61.4045 34.7866 61.0641 34.9428Z" fill="white"/>
<path d="M35.964 55.4341C35.7368 55.5762 33.8654 57.3766 31.823 59.4331C27.824 63.475 27.7811 63.5172 28.0223 64.7655C28.1496 65.4604 29.0006 66.3114 29.6955 66.4387C30.8158 66.6518 31.1562 66.4668 33.0136 64.6375L34.7438 62.9215L34.7867 67.4029C34.8289 71.6712 34.8437 71.8984 35.1271 72.2669C35.6798 73.0187 36.1342 73.2452 37.0274 73.2452C37.9206 73.2452 38.3742 73.018 38.9277 72.2669C39.2111 71.8984 39.2252 71.6712 39.2681 67.4029L39.3103 62.9215L41.0404 64.6375C42.8985 66.4668 43.2382 66.651 44.3586 66.4387C45.0534 66.3114 45.9044 65.4604 46.0317 64.7655C46.2729 63.5179 46.2441 63.475 42.16 59.3769C40.0754 57.2782 38.2032 55.4771 37.9909 55.3638C37.4529 55.0797 36.4746 55.1078 35.964 55.4341Z" fill="white"/>
</svg>
