<?xml version="1.0" encoding="utf-8"?>
<!-- Svg Vector Icons : http://www.onlinewebfonts.com/icon -->
<!DOCTYPE svg PUBLIC "-//W3C//DTD SVG 1.1//EN" "http://www.w3.org/Graphics/SVG/1.1/DTD/svg11.dtd">
<svg version="1.1" xmlns="http://www.w3.org/2000/svg" xmlns:xlink="http://www.w3.org/1999/xlink" x="0px" y="0px" viewBox="0 0 1000 1000" enable-background="new 0 0 1000 1000" xml:space="preserve">
<metadata> Svg Vector Icons : http://www.onlinewebfonts.com/icon </metadata>
<g><path d="M968.7,681c-1.5-8.5-5.2-15.7-11.2-21.7c-13.2-13.2-28.5-16-46-8.3c-46.8,21.7-95.3,32.6-145.6,32.6c-63,0-121.1-15.5-174.3-46.6c-53.2-31.1-95.3-73.2-126.4-126.4c-31.1-53.2-46.6-111.3-46.6-174.3c0-48.9,9.7-95.4,29-139.5c19.4-44.1,47.4-82.7,84-115.9c14-13.2,17.2-28.5,9.6-46c-7.2-17.4-20.2-25.7-38.9-24.9c-65.1,2.6-126.8,17.1-185.1,43.7c-58.3,26.6-108.4,61.6-150.3,105C125,202.2,91.8,253.6,67.3,313c-24.5,59.4-36.7,121.6-36.7,186.7c0,66.4,13,129.8,38.9,190.2c26,60.4,60.9,112.6,104.7,156.4c43.8,43.8,96,78.7,156.4,104.7c60.4,26,123.8,38.9,190.2,38.9c95.3,0,183.3-25.9,264-77.6c80.7-51.7,141-120.8,181-207.2C969.3,697.6,970.2,689.5,968.7,681z M695.5,869c-55.1,26.2-113.3,39.3-174.6,39.3c-55.3,0-108.2-10.8-158.6-32.5C311.8,854,268.4,825,232,788.6c-36.4-36.4-65.4-79.8-87.1-130.2c-21.7-50.4-32.6-103.3-32.6-158.6c0-91.5,27.1-173.2,81.4-245.1c54.3-71.9,124.2-120.7,209.7-146.2C359.2,178.6,337,254.6,337,336.3c0,77.5,19.1,149.2,57.5,215.2c38.3,66,90.4,118.1,156.4,156.4c66,38.3,137.7,57.5,215.1,57.5c23.8,0,47.2-1.9,70.2-5.7C797.5,806.4,750.6,842.9,695.5,869z"/></g>
</svg>