<svg width="74" height="74" viewBox="0 0 74 74" fill="none" xmlns="http://www.w3.org/2000/svg">
<path d="M36.1061 0.876039C35.5244 1.13134 34.9287 1.85432 34.8296 2.4219C34.7874 2.6772 34.7585 5.11624 34.7874 7.86756C34.8296 12.6465 34.8444 12.8737 35.1278 13.2422C35.6806 13.994 36.1349 14.2205 37.0281 14.2205C37.9213 14.2205 38.3749 13.9933 38.9285 13.2422C39.2119 12.8596 39.2259 12.6894 39.2259 7.48498C39.2259 2.28056 39.2119 2.11036 38.9285 1.72778C38.7723 1.5154 38.4748 1.20312 38.2758 1.06104C37.8074 0.705838 36.6729 0.606679 36.1061 0.876039Z" fill="white"/>
<path d="M11.9984 10.8031C11.0482 11.2146 10.5095 12.292 10.7219 13.3983C10.7929 13.866 11.3317 14.4617 14.5936 17.7236C18.6776 21.8077 18.7206 21.8358 19.9682 21.5953C20.6631 21.468 21.5141 20.617 21.6413 19.9221C21.8826 18.6886 21.8397 18.6175 17.9117 14.6607C15.9123 12.6472 14.0689 10.9171 13.8136 10.8031C13.246 10.5619 12.5512 10.5619 11.9984 10.8031Z" fill="white"/>
<path d="M60.2138 10.8032C59.9866 10.9164 58.1433 12.6465 56.1438 14.6608C52.2159 18.6176 52.173 18.6879 52.4142 19.9222C52.5422 20.6171 53.3925 21.4681 54.0873 21.5953C55.335 21.8366 55.3779 21.7937 59.3909 17.7947C62.0001 15.1995 63.1627 13.9378 63.2766 13.6115C63.5889 12.6473 63.2485 11.6261 62.3834 10.9882C61.901 10.633 60.7806 10.5338 60.2138 10.8032Z" fill="white"/>
<path d="M34.5462 16.7165C27.881 17.6096 21.7834 22.02 18.7346 28.1465C17.4293 30.7839 16.7914 33.2229 16.6493 36.2014C16.4932 39.3782 17.0607 42.0726 18.6917 45.8725C18.7487 46.0145 16.9475 46.0567 10.4666 46.0856C2.32659 46.1278 2.15639 46.1278 1.77381 46.426C1.02197 46.9788 0.795532 47.4331 0.795532 48.3263C0.795532 49.2195 1.02271 49.6738 1.77381 50.2266L2.15639 50.5241H37.0274H71.8984L72.281 50.2266C73.0329 49.6738 73.2593 49.2195 73.2593 48.3263C73.2593 47.4331 73.0321 46.9788 72.281 46.426C71.8984 46.1278 71.7282 46.1278 63.6023 46.0856C59.0498 46.0715 55.3209 46.0286 55.3209 46.0145C55.3209 46.0005 55.5481 45.447 55.8175 44.795C58.8382 37.6481 57.5336 29.7915 52.3291 23.6799C49.5068 20.3617 45.0261 17.7525 40.7008 16.9155C39.2681 16.6314 35.9218 16.5181 34.5462 16.7165ZM39.2541 21.2542C42.1467 21.6367 45.1252 22.8851 47.2379 24.6012C53.2934 29.5362 54.6971 38.7396 50.4147 45.518L50.0743 46.0567H37.0281H23.982L23.5994 45.447C22.2097 43.2492 21.3305 40.4697 21.1885 37.8316C21.0464 34.8679 21.5429 32.3578 22.8475 29.6776C24.3934 26.4867 26.549 24.3459 29.7251 22.8C30.6612 22.3464 31.8378 21.8639 32.3484 21.7366C34.5462 21.1409 37.1125 20.9567 39.2541 21.2542Z" fill="white"/>
<path d="M2.07128 34.9109C1.12112 35.3216 0.582401 36.4138 0.780721 37.4772C0.908741 38.1439 1.61766 38.9239 2.25554 39.1082C2.59594 39.2073 4.52438 39.2503 7.84254 39.2214C12.6925 39.1792 12.9189 39.1652 13.2882 38.881C14.04 38.3282 14.2672 37.8746 14.2672 36.9814C14.2672 36.0882 14.04 35.6339 13.2889 35.0811C12.9204 34.7977 12.7073 34.7836 7.70194 34.7547C3.58902 34.7266 2.41168 34.7547 2.07128 34.9109Z" fill="white"/>
<path d="M61.0641 34.9109C60.1139 35.3223 59.5752 36.4138 59.7735 37.4779C59.9008 38.1447 60.6105 38.9246 61.2483 39.1089C61.5887 39.2081 63.5172 39.251 66.8353 39.2221C71.6853 39.1799 71.9125 39.1659 72.281 38.8817C73.0328 38.3282 73.26 37.8746 73.26 36.9814C73.26 36.0882 73.0328 35.6339 72.2817 35.0811C71.9132 34.7977 71.7001 34.7836 66.6947 34.7547C62.5818 34.7266 61.4045 34.7547 61.0641 34.9109Z" fill="white"/>
<path d="M36.1061 55.3312C35.5815 55.5724 35.1138 56.0682 34.9147 56.5929C34.8156 56.8482 34.7586 58.5783 34.7586 61.2727V65.5417L33.0285 63.8257C31.1563 61.9823 30.8166 61.7981 29.6962 62.0104C29.0014 62.1385 28.1504 62.9887 28.0231 63.6836C27.7819 64.9312 27.8107 64.9741 31.8948 69.0722C33.9794 71.1709 35.8516 72.972 36.0639 73.0853C36.5605 73.3406 37.4959 73.3406 37.9924 73.0853C38.2048 72.972 40.077 71.1709 42.1616 69.0722C46.2456 64.9741 46.2737 64.9312 46.0332 63.6836C45.9052 62.9887 45.055 62.1377 44.3601 62.0104C43.2397 61.7981 42.8993 61.9823 41.0419 63.8116L39.3118 65.5277L39.2696 61.0462C39.2267 56.7779 39.2127 56.5507 38.9292 56.1822C38.7731 55.9691 38.4756 55.6575 38.2766 55.5155C37.7933 55.161 36.673 55.0618 36.1061 55.3312Z" fill="white"/>
</svg>
