<svg width="74" height="74" viewBox="0 0 74 74" fill="none" xmlns="http://www.w3.org/2000/svg">
<path d="M25.1444 2.49819C17.4262 4.74853 4.56351 17.7725 2.47375 25.6506C-1.54593 40.4424 1.34821 51.8577 11.9598 62.1481C27.2342 76.9407 46.5297 76.9407 61.804 62.1481C77.0783 47.1957 77.0783 26.6148 61.804 11.6616C51.1909 1.37191 39.2939 -1.52149 25.1444 2.49819ZM21.6065 22.917C21.6065 32.0819 25.4656 39.9607 33.183 46.23C37.6844 49.7679 41.2231 51.0533 48.7785 51.6971C54.0858 52.1788 58.5872 53.1445 58.5872 53.7868C58.5872 56.3606 48.9398 63.1123 43.9544 64.2379C33.9859 66.4897 24.9823 63.7561 17.586 56.1985C10.0299 48.6424 7.61823 41.7285 9.22625 31.9213C10.1905 26.133 17.2656 15.1995 20.1598 15.1995C20.9641 15.1995 21.6065 18.5762 21.6065 22.917Z" fill="white"/>
</svg>
