<svg width="52" height="54" viewBox="0 0 52 54" fill="none" xmlns="http://www.w3.org/2000/svg">
<g filter="url(#filter0_d_44_1478)">
<path d="M15 36C12.5045 36 10.1113 35.0518 8.34674 33.364C6.58219 31.6761 5.59088 29.3869 5.59088 27C5.59088 24.613 6.58219 22.3239 8.34674 20.636C10.1113 18.9482 12.5045 18 15 18C15.5893 15.3744 17.3135 13.067 19.7931 11.5854C21.0209 10.8518 22.3973 10.3431 23.8435 10.0882C25.2898 9.83335 26.7777 9.83735 28.2222 10.1C29.6667 10.3626 31.0396 10.8788 32.2626 11.619C33.4855 12.3591 34.5344 13.3088 35.3495 14.4139C36.1646 15.5189 36.7299 16.7576 37.0131 18.0592C37.2962 19.3608 37.2918 20.6999 37 22H39C40.8565 22 42.637 22.7375 43.9497 24.0502C45.2625 25.363 46 27.1435 46 29C46 30.8565 45.2625 32.637 43.9497 33.9497C42.637 35.2625 40.8565 36 39 36" stroke="#2C3E50" stroke-width="3" stroke-linecap="round" stroke-linejoin="round"/>
<path d="M31 40V44M23 26V30V26ZM23 36V40V36ZM31 30V34V30Z" stroke="#2C3E50" stroke-width="3" stroke-linecap="round" stroke-linejoin="round"/>
</g>
<defs>
<filter id="filter0_d_44_1478" x="-3" y="0" width="56" height="56" filterUnits="userSpaceOnUse" color-interpolation-filters="sRGB">
<feFlood flood-opacity="0" result="BackgroundImageFix"/>
<feColorMatrix in="SourceAlpha" type="matrix" values="0 0 0 0 0 0 0 0 0 0 0 0 0 0 0 0 0 0 127 0" result="hardAlpha"/>
<feOffset dy="4"/>
<feGaussianBlur stdDeviation="2"/>
<feComposite in2="hardAlpha" operator="out"/>
<feColorMatrix type="matrix" values="0 0 0 0 0 0 0 0 0 0 0 0 0 0 0 0 0 0 0.25 0"/>
<feBlend mode="normal" in2="BackgroundImageFix" result="effect1_dropShadow_44_1478"/>
<feBlend mode="normal" in="SourceGraphic" in2="effect1_dropShadow_44_1478" result="shape"/>
</filter>
</defs>
</svg>
