<svg width="48" height="48" viewBox="0 0 48 48" fill="none" xmlns="http://www.w3.org/2000/svg">
<path d="M24 32C28.4183 32 32 28.4183 32 24C32 19.5817 28.4183 16 24 16C19.5817 16 16 19.5817 16 24C16 28.4183 19.5817 32 24 32Z" stroke="#2C3E50" stroke-width="3" stroke-linecap="round" stroke-linejoin="round"/>
<path d="M12.6 35.4L11.2 36.8M6 24H8H6ZM24 6V8V6ZM40 24H42H40ZM24 40V42V40ZM11.2 11.2L12.6 12.6L11.2 11.2ZM36.8 11.2L35.4 12.6L36.8 11.2ZM35.4 35.4L36.8 36.8L35.4 35.4Z" stroke="#2C3E50" stroke-width="3" stroke-linecap="round" stroke-linejoin="round"/>
</svg>
