<?xml version="1.0" encoding="utf-8"?>
<!-- Svg Vector Icons : http://www.onlinewebfonts.com/icon -->
<!DOCTYPE svg PUBLIC "-//W3C//DTD SVG 1.1//EN" "http://www.w3.org/Graphics/SVG/1.1/DTD/svg11.dtd">
<svg version="1.1" xmlns="http://www.w3.org/2000/svg" xmlns:xlink="http://www.w3.org/1999/xlink" x="0px" y="0px" viewBox="0 0 1000 1000" enable-background="new 0 0 1000 1000" xml:space="preserve">
<metadata> Svg Vector Icons : http://www.onlinewebfonts.com/icon </metadata>
<g><g transform="translate(0.000000,511.000000) scale(0.100000,-0.100000)"><path d="M4579.6,4679c-888.7-137.9-1677.8-651.2-2170-1405.8c-57.5-90-134.1-222.2-168.6-293c-49.8-97.7-76.6-132.2-113-139.8C1626.3,2733,1206.8,2507,842.9,2143.1c-371.6-369.6-609.1-812.1-708.7-1312c-34.5-174.3-34.5-649.3,0-823.6c97.7-496.1,337.1-940.4,701-1302.4c354.3-354.3,737.4-566.9,1248.8-693.3c118.7-28.7,383.1-32.5,3022.3-38.3c2035.9-5.7,2940-1.9,3054.9,13.4c616.7,80.4,1199,494.1,1511.2,1072.6c396.5,739.3,268.1,1624.2-331.4,2254.3c-302.6,319.9-701,536.3-1116.6,609.1c-91.9,15.3-166.6,30.7-168.5,34.5c-1.9,1.9-23,103.4-44.1,227.9c-114.9,616.7-394.6,1135.8-865.7,1605c-281.5,281.6-499.9,442.4-821.7,603.3c-222.2,111.1-568.8,227.9-796.7,268.1C5280.6,4705.8,4805.6,4715.3,4579.6,4679z M5508.5,4048.8c247.1-51.7,446.3-122.6,660.8-231.7c432.8-222.2,769.9-555.4,994-984.5c172.4-329.4,258.6-653.1,285.4-1068.7c17.2-250.9,32.6-293,143.6-375.4c44.1-32.6,93.9-40.2,316-51.7c463.5-23,725.9-124.5,990.2-390.7c174.3-174.3,270-335.2,339-574.6c34.5-126.4,42.1-201.1,42.1-411.8c0-210.7-7.7-285.4-42.1-411.8c-69-239.4-164.7-400.3-339-574.6c-174.3-174.3-335.2-270-574.6-339l-153.2-44H5221.3c-2811.6,0-2957.2,1.9-3102.8,36.4c-352.4,82.4-628.2,231.7-871.5,471.2c-252.8,249-406,528.6-490.3,890.6c-53.6,226-49.8,666.5,9.6,900.2c91.9,377.3,323.7,743.1,616.7,974.9c268.1,210.7,559.3,331.3,930.8,383.1c105.3,15.3,208.8,36.4,229.8,46c68.9,38.3,118.7,113,185.8,281.5c285.4,712.5,894.4,1254.5,1614.6,1438.4c103.4,24.9,243.2,55.5,312.2,65.1C4840.1,4102.4,5328.5,4087.1,5508.5,4048.8z"/><path d="M279.8-2671.9c-128.3-55.5-201.1-203-174.3-346.7c17.2-90,113-195.4,199.2-220.3c49.8-15.3,1227.7-19.2,3819.1-15.3l3748.2,5.7l51.7,40.2c101.5,74.7,132.2,136,132.2,256.7c0,120.7-30.6,182-132.2,256.7l-51.7,40.2l-3767.4,3.8C1001.9-2647,327.7-2650.8,279.8-2671.9z"/><path d="M2118.5-3897.7c-128.3-55.5-201.1-203-174.3-346.7c17.2-90,113-195.4,199.2-220.3c49.8-15.3,1227.7-19.2,3819.1-15.3l3748.2,5.7l51.7,40.2c101.5,74.7,132.2,136,132.2,256.7c0,120.7-30.6,182-132.2,256.7l-51.7,40.2l-3767.4,3.8C2840.6-3872.8,2166.4-3876.6,2118.5-3897.7z"/></g></g>
</svg>