<svg width="48" height="48" viewBox="0 0 48 48" fill="none" xmlns="http://www.w3.org/2000/svg">
<path d="M14 36C11.5046 36 9.11132 35.0518 7.34677 33.364C5.58222 31.6761 4.59091 29.3869 4.59091 27C4.59091 24.613 5.58222 22.3239 7.34677 20.636C9.11132 18.9482 11.5046 18 14 18C14.5894 15.3744 16.3135 13.067 18.7932 11.5854C20.021 10.8518 21.3973 10.3431 22.8436 10.0882C24.2898 9.83335 25.7777 9.83735 27.2222 10.1C28.6668 10.3626 30.0397 10.8788 31.2626 11.619C32.4855 12.3591 33.5344 13.3088 34.3495 14.4139C35.1646 15.5189 35.7299 16.7576 36.0131 18.0592C36.2963 19.3608 36.2918 20.6999 36 22H38C39.8565 22 41.637 22.7375 42.9498 24.0502C44.2625 25.363 45 27.1435 45 29C45 30.8565 44.2625 32.637 42.9498 33.9497C41.637 35.2625 39.8565 36 38 36H14Z" stroke="#2C3E50" stroke-width="3" stroke-linecap="round" stroke-linejoin="round"/>
</svg>
