<?xml version="1.0" encoding="utf-8"?>
<!-- Svg Vector Icons : http://www.onlinewebfonts.com/icon -->
<!DOCTYPE svg PUBLIC "-//W3C//DTD SVG 1.1//EN" "http://www.w3.org/Graphics/SVG/1.1/DTD/svg11.dtd">
<svg version="1.1" xmlns="http://www.w3.org/2000/svg" xmlns:xlink="http://www.w3.org/1999/xlink" x="0px" y="0px" viewBox="0 0 1000 1000" enable-background="new 0 0 1000 1000" xml:space="preserve">
<metadata> Svg Vector Icons : http://www.onlinewebfonts.com/icon </metadata>
<g><path d="M771,163.1C722,69.7,622.5,10,515.3,10c-131.7,0-248.1,90.3-280.2,215.9c-9.2-1.5-16.8-1.5-26-1.5C98.8,224.4,10,313.2,10,423.4s88.8,199.1,199.1,199.1h551.3c127.1,0,229.7-102.6,229.7-229.7C990,270.3,893.5,169.3,771,163.1z M760.3,561.3H209.1c-76.6,0-137.8-61.3-137.8-137.8s61.3-137.8,137.8-137.8c13.8,0,27.6,1.5,39.8,6.1l33.7,10.7l4.6-35.2c18.4-111.8,114.8-196,228.2-196c90.3,0,173,53.6,209.8,136.3l9.2,18.4l24.5-1.5c1.5,0,1.5,0,3.1,0c93.4,0,168.4,75,168.4,168.4C928.8,486.2,853.7,561.3,760.3,561.3z"/><path d="M386.7,754.2c-6.1,6.1-9.2,13.8-9.2,21.4s3.1,15.3,9.2,21.4c6.1,6.1,13.8,9.2,21.4,9.2s15.3-3.1,21.4-9.2c6.1-6.1,9.2-13.8,9.2-21.4s-3.1-15.3-9.2-21.4C418.8,741.9,397.4,741.9,386.7,754.2z"/><path d="M285.6,745c7.7,0,15.3-3.1,21.4-9.2c6.1-6.1,9.2-13.8,9.2-21.4s-3.1-15.3-9.2-21.4c-12.3-10.7-32.2-10.7-42.9,0c-6.1,4.6-9.2,13.8-9.2,21.4s3.1,15.3,9.2,21.4S278,745,285.6,745z"/><path d="M245.8,858.3c6.1-6.1,9.2-13.8,9.2-21.4s-3.1-15.3-9.2-21.4c-12.3-10.7-32.2-10.7-42.9,0c-6.1,4.6-9.2,13.8-9.2,21.4s3.1,15.3,9.2,21.4s13.8,9.2,21.4,9.2S239.7,864.4,245.8,858.3z"/><path d="M264.2,980.8c6.1,6.1,13.8,9.2,21.4,9.2s15.3-3.1,21.4-9.2c6.1-6.1,9.2-13.8,9.2-21.4s-3.1-15.3-9.2-21.4c-12.3-10.7-32.2-10.7-42.9,0c-6.1,4.6-9.2,13.8-9.2,21.4S258.1,974.7,264.2,980.8z"/><path d="M408.1,898.1c0,7.7,3.1,15.3,9.2,21.4c6.1,6.1,13.8,9.2,21.4,9.2s15.3-3.1,21.4-9.2c6.1-6.1,9.2-13.8,9.2-21.4s-3.1-15.3-9.2-21.4c-12.3-10.7-32.2-10.7-42.9,0C411.2,881.3,408.1,890.5,408.1,898.1z"/><path d="M539.8,815.4c-6.1,4.6-9.2,13.8-9.2,21.4s3.1,15.3,9.2,21.4s13.8,9.2,21.4,9.2s15.3-3.1,21.4-9.2s9.2-13.8,9.2-21.4s-3.1-15.3-9.2-21.4C572,803.2,550.5,803.2,539.8,815.4z"/><path d="M613.3,692.9c-12.3-10.7-32.2-10.7-42.9,0c-6.1,4.6-9.2,13.8-9.2,21.4s3.1,15.3,9.2,21.4s13.8,9.2,21.4,9.2s15.3-3.1,21.4-9.2s9.2-13.8,9.2-21.4S619.4,697.5,613.3,692.9z"/><path d="M766.4,766.4c6.1-6.1,9.2-13.8,9.2-21.4s-3.1-15.3-9.2-21.4c-12.3-10.7-32.2-10.7-42.9,0c-6.1,4.6-9.2,12.3-9.2,21.4c0,7.7,3.1,15.3,9.2,21.4s13.8,9.2,21.4,9.2S760.3,772.6,766.4,766.4z"/><path d="M692.9,876.7c-6.1,4.6-9.2,13.8-9.2,21.4s3.1,15.3,9.2,21.4s13.8,9.2,21.4,9.2s15.3-3.1,21.4-9.2s9.2-13.8,9.2-21.4s-3.1-15.3-9.2-21.4C725.1,864.4,703.7,864.4,692.9,876.7z"/><path d="M570.4,937.9c-6.1,4.6-9.2,13.8-9.2,21.4s3.1,15.3,9.2,21.4s13.8,9.2,21.4,9.2s15.3-3.1,21.4-9.2s9.2-13.8,9.2-21.4s-3.1-15.3-9.2-21.4C602.6,925.7,581.2,925.7,570.4,937.9z"/></g>
</svg>